<svg width="16" height="16" viewBox="0 0 16 16" fill="none" xmlns="http://www.w3.org/2000/svg">
<path d="M1 1.25024C1 0.559888 1.55964 0.000244141 2.25 0.000244141C2.94036 0.000244141 3.5 0.559888 3.5 1.25024V14.7502C3.5 15.4406 2.94036 16.0002 2.25 16.0002C1.55964 16.0002 1 15.4406 1 14.7502V1.25024Z" fill="#0E0E0E"/>
<path d="M7 1.20026C7 0.537508 7.53726 0.000244141 8.20001 0.000244141C8.86276 0.000244141 9.40002 0.537508 9.40002 1.20026V14.8002C9.40002 15.463 8.86276 16.0002 8.20001 16.0002C7.53726 16.0002 7 15.463 7 14.8002V1.20026Z" fill="#0E0E0E"/>
<path d="M12.5 1.25022C12.5 0.559877 13.0596 0.000244141 13.75 0.000244141C14.4403 0.000244141 15 0.559877 15 1.25022V14.7503C15 15.4406 14.4403 16.0002 13.75 16.0002C13.0596 16.0002 12.5 15.4406 12.5 14.7503V1.25022Z" fill="#0E0E0E"/>
</svg>
