<svg width="146" height="39" viewBox="0 0 146 39" fill="none" xmlns="http://www.w3.org/2000/svg">
<path d="M13.5707 34.53C12.4307 34.53 11.5607 34.17 10.9607 33.45C10.3607 32.73 10.0607 31.92 10.0607 31.02C10.0607 30.06 10.2407 29.19 10.6007 28.41C11.0207 27.57 11.4407 26.64 11.8607 25.62C12.3407 24.54 12.6707 23.25 12.8507 21.75C12.9107 21.39 12.8207 21.18 12.5807 21.12C12.4007 21 12.1607 21.06 11.8607 21.3C10.0607 22.8 8.80071 24.18 8.08072 25.44C7.42071 26.7 6.49071 27.66 5.29071 28.32C4.51071 28.74 3.67071 28.89 2.77071 28.77C1.87071 28.59 1.12071 28.02 0.520714 27.06C-0.0192857 26.04 -0.139286 25.08 0.160714 24.18C0.460714 23.28 1.00071 22.62 1.78071 22.2C2.62071 21.72 3.49071 21.45 4.39071 21.39C5.35071 21.33 6.37071 21.24 7.45072 21.12C8.59071 21 9.85071 20.64 11.2307 20.04C11.5907 19.92 11.7707 19.74 11.7707 19.5C11.7707 19.26 11.5907 19.08 11.2307 18.96C9.85071 18.3 8.59071 17.94 7.45072 17.88C6.37071 17.76 5.35071 17.67 4.39071 17.61C3.49071 17.55 2.62071 17.28 1.78071 16.8C1.00071 16.32 0.460714 15.63 0.160714 14.73C-0.139286 13.83 -0.0192857 12.9 0.520714 11.94C1.12071 10.98 1.87071 10.41 2.77071 10.23C3.67071 10.05 4.51071 10.2 5.29071 10.68C6.13071 11.16 6.82071 11.79 7.36071 12.57C7.90071 13.29 8.50071 14.1 9.16071 15C9.82071 15.9 10.7507 16.83 11.9507 17.79C12.2507 18.03 12.4907 18.09 12.6707 17.97C12.8507 17.85 12.9107 17.61 12.8507 17.25C12.6707 15.69 12.3407 14.4 11.8607 13.38C11.4407 12.36 11.0207 11.43 10.6007 10.59C10.2407 9.75 10.0607 8.88 10.0607 7.98C10.0607 7.08001 10.3607 6.27 10.9607 5.55C11.5607 4.83 12.4307 4.47 13.5707 4.47C14.7107 4.47 15.5807 4.83 16.1807 5.55C16.7807 6.27 17.0807 7.08001 17.0807 7.98C17.0807 8.88 16.8707 9.75 16.4507 10.59C16.0907 11.43 15.6707 12.36 15.1907 13.38C14.7707 14.4 14.4707 15.69 14.2907 17.25C14.2307 17.61 14.2907 17.85 14.4707 17.97C14.7107 18.09 14.9507 18.03 15.1907 17.79C16.4507 16.83 17.3807 15.9 17.9807 15C18.6407 14.1 19.2407 13.29 19.7807 12.57C20.3207 11.79 21.0107 11.16 21.8507 10.68C22.6307 10.2 23.4707 10.05 24.3707 10.23C25.2707 10.41 26.0207 10.98 26.6207 11.94C27.1607 12.9 27.2807 13.83 26.9807 14.73C26.6807 15.63 26.1407 16.32 25.3607 16.8C24.5207 17.28 23.6207 17.55 22.6607 17.61C21.7607 17.67 20.7407 17.76 19.6007 17.88C18.5207 17.94 17.2907 18.3 15.9107 18.96C15.5507 19.08 15.3707 19.26 15.3707 19.5C15.3707 19.74 15.5507 19.92 15.9107 20.04C17.2907 20.64 18.5207 21 19.6007 21.12C20.7407 21.24 21.7607 21.33 22.6607 21.39C23.6207 21.45 24.5207 21.72 25.3607 22.2C26.1407 22.62 26.6807 23.28 26.9807 24.18C27.2807 25.08 27.1607 26.04 26.6207 27.06C26.0207 28.02 25.2707 28.59 24.3707 28.77C23.4707 28.89 22.6307 28.74 21.8507 28.32C20.7107 27.66 19.7807 26.7 19.0607 25.44C18.3407 24.18 17.0807 22.8 15.2807 21.3C15.0407 21.06 14.8007 21 14.5607 21.12C14.3207 21.18 14.2307 21.39 14.2907 21.75C14.4707 23.25 14.7707 24.54 15.1907 25.62C15.6707 26.64 16.0907 27.57 16.4507 28.41C16.8707 29.19 17.0807 30.06 17.0807 31.02C17.0807 31.92 16.7807 32.73 16.1807 33.45C15.5807 34.17 14.7107 34.53 13.5707 34.53Z" fill="black"/>
<path d="M13.5707 34.53C12.4307 34.53 11.5607 34.17 10.9607 33.45C10.3607 32.73 10.0607 31.92 10.0607 31.02C10.0607 30.06 10.2407 29.19 10.6007 28.41C11.0207 27.57 11.4407 26.64 11.8607 25.62C12.3407 24.54 12.6707 23.25 12.8507 21.75C12.9107 21.39 12.8207 21.18 12.5807 21.12C12.4007 21 12.1607 21.06 11.8607 21.3C10.0607 22.8 8.80071 24.18 8.08072 25.44C7.42071 26.7 6.49071 27.66 5.29071 28.32C4.51071 28.74 3.67071 28.89 2.77071 28.77C1.87071 28.59 1.12071 28.02 0.520714 27.06C-0.0192857 26.04 -0.139286 25.08 0.160714 24.18C0.460714 23.28 1.00071 22.62 1.78071 22.2C2.62071 21.72 3.49071 21.45 4.39071 21.39C5.35071 21.33 6.37071 21.24 7.45072 21.12C8.59071 21 9.85071 20.64 11.2307 20.04C11.5907 19.92 11.7707 19.74 11.7707 19.5C11.7707 19.26 11.5907 19.08 11.2307 18.96C9.85071 18.3 8.59071 17.94 7.45072 17.88C6.37071 17.76 5.35071 17.67 4.39071 17.61C3.49071 17.55 2.62071 17.28 1.78071 16.8C1.00071 16.32 0.460714 15.63 0.160714 14.73C-0.139286 13.83 -0.0192857 12.9 0.520714 11.94C1.12071 10.98 1.87071 10.41 2.77071 10.23C3.67071 10.05 4.51071 10.2 5.29071 10.68C6.13071 11.16 6.82071 11.79 7.36071 12.57C7.90071 13.29 8.50071 14.1 9.16071 15C9.82071 15.9 10.7507 16.83 11.9507 17.79C12.2507 18.03 12.4907 18.09 12.6707 17.97C12.8507 17.85 12.9107 17.61 12.8507 17.25C12.6707 15.69 12.3407 14.4 11.8607 13.38C11.4407 12.36 11.0207 11.43 10.6007 10.59C10.2407 9.75 10.0607 8.88 10.0607 7.98C10.0607 7.08001 10.3607 6.27 10.9607 5.55C11.5607 4.83 12.4307 4.47 13.5707 4.47C14.7107 4.47 15.5807 4.83 16.1807 5.55C16.7807 6.27 17.0807 7.08001 17.0807 7.98C17.0807 8.88 16.8707 9.75 16.4507 10.59C16.0907 11.43 15.6707 12.36 15.1907 13.38C14.7707 14.4 14.4707 15.69 14.2907 17.25C14.2307 17.61 14.2907 17.85 14.4707 17.97C14.7107 18.09 14.9507 18.03 15.1907 17.79C16.4507 16.83 17.3807 15.9 17.9807 15C18.6407 14.1 19.2407 13.29 19.7807 12.57C20.3207 11.79 21.0107 11.16 21.8507 10.68C22.6307 10.2 23.4707 10.05 24.3707 10.23C25.2707 10.41 26.0207 10.98 26.6207 11.94C27.1607 12.9 27.2807 13.83 26.9807 14.73C26.6807 15.63 26.1407 16.32 25.3607 16.8C24.5207 17.28 23.6207 17.55 22.6607 17.61C21.7607 17.67 20.7407 17.76 19.6007 17.88C18.5207 17.94 17.2907 18.3 15.9107 18.96C15.5507 19.08 15.3707 19.26 15.3707 19.5C15.3707 19.74 15.5507 19.92 15.9107 20.04C17.2907 20.64 18.5207 21 19.6007 21.12C20.7407 21.24 21.7607 21.33 22.6607 21.39C23.6207 21.45 24.5207 21.72 25.3607 22.2C26.1407 22.62 26.6807 23.28 26.9807 24.18C27.2807 25.08 27.1607 26.04 26.6207 27.06C26.0207 28.02 25.2707 28.59 24.3707 28.77C23.4707 28.89 22.6307 28.74 21.8507 28.32C20.7107 27.66 19.7807 26.7 19.0607 25.44C18.3407 24.18 17.0807 22.8 15.2807 21.3C15.0407 21.06 14.8007 21 14.5607 21.12C14.3207 21.18 14.2307 21.39 14.2907 21.75C14.4707 23.25 14.7707 24.54 15.1907 25.62C15.6707 26.64 16.0907 27.57 16.4507 28.41C16.8707 29.19 17.0807 30.06 17.0807 31.02C17.0807 31.92 16.7807 32.73 16.1807 33.45C15.5807 34.17 14.7107 34.53 13.5707 34.53Z" fill="url(#paint0_radial_1_2833)"/>
<path d="M36.5461 30C36.2661 30 36.1261 29.9 36.1261 29.7C36.1261 29.48 36.3261 29.34 36.7261 29.28L37.3261 29.19C37.7661 29.13 38.0661 29.03 38.2261 28.89C38.4061 28.73 38.5361 28.44 38.6161 28.02L42.6961 10.38C42.7961 9.96 42.7961 9.68 42.6961 9.54C42.5961 9.4 42.3461 9.29 41.9461 9.21L41.3461 9.09C41.0861 9.03 40.9561 8.92 40.9561 8.76C40.9561 8.52 41.1361 8.4 41.4961 8.4H51.5161C52.0361 8.4 52.2461 8.63 52.1461 9.09L51.2161 14.07C51.1561 14.41 50.9961 14.58 50.7361 14.58C50.4561 14.58 50.3361 14.45 50.3761 14.19L50.4661 13.14C50.5661 12.12 50.4761 11.32 50.1961 10.74C49.9361 10.16 49.5361 9.75 48.9961 9.51C48.4761 9.27 47.8661 9.15 47.1661 9.15C46.3661 9.15 45.7861 9.27 45.4261 9.51C45.0661 9.73 44.8161 10.13 44.6761 10.71L43.0261 17.94C42.9661 18.22 43.0761 18.36 43.3561 18.36H44.8861C45.7661 18.36 46.4061 17.89 46.8061 16.95L47.4661 15.45C47.5661 15.19 47.7261 15.06 47.9461 15.06C48.0661 15.06 48.1561 15.11 48.2161 15.21C48.2961 15.29 48.3161 15.41 48.2761 15.57L46.7161 22.32C46.6161 22.66 46.4461 22.83 46.2061 22.83C45.9661 22.83 45.8461 22.7 45.8461 22.44L45.8761 20.97C45.8961 20.27 45.8061 19.81 45.6061 19.59C45.4261 19.37 45.1061 19.26 44.6461 19.26H43.1461C42.8461 19.26 42.6661 19.4 42.6061 19.68L40.8661 27.21C40.7061 27.93 40.7761 28.45 41.0761 28.77C41.3761 29.09 42.0161 29.25 42.9961 29.25C43.5961 29.25 44.1861 29.16 44.7661 28.98C45.3661 28.78 45.9261 28.41 46.4461 27.87C46.9861 27.33 47.4761 26.55 47.9161 25.53L48.6361 23.85C48.7361 23.59 48.8961 23.46 49.1161 23.46C49.4161 23.46 49.5161 23.63 49.4161 23.97L47.8861 29.31C47.7661 29.77 47.4661 30 46.9861 30H36.5461ZM54.3091 30.27C53.6491 30.27 52.9491 30.17 52.2091 29.97C51.4891 29.77 50.9391 29.52 50.5591 29.22C50.4191 29.1 50.3591 28.92 50.3791 28.68L51.0391 24.75C51.0791 24.49 51.1991 24.36 51.3991 24.36C51.6191 24.36 51.7291 24.5 51.7291 24.78L51.7891 26.22C51.8291 27.36 52.0991 28.2 52.5991 28.74C53.1191 29.26 53.7491 29.52 54.4891 29.52C55.1291 29.52 55.6791 29.32 56.1391 28.92C56.5991 28.5 56.8291 27.89 56.8291 27.09C56.8291 26.63 56.7591 26.21 56.6191 25.83C56.4791 25.43 56.2591 25.01 55.9591 24.57C55.6591 24.11 55.2491 23.56 54.7291 22.92C54.0491 22.04 53.5391 21.29 53.1991 20.67C52.8791 20.03 52.7191 19.37 52.7191 18.69C52.7191 17.43 53.1091 16.42 53.8891 15.66C54.6891 14.9 55.6991 14.52 56.9191 14.52C57.4591 14.52 57.9791 14.6 58.4791 14.76C58.9991 14.92 59.4291 15.16 59.7691 15.48C59.9491 15.62 60.0091 15.8 59.9491 16.02L59.1091 20.04C59.0491 20.3 58.9291 20.43 58.7491 20.43C58.5691 20.43 58.4591 20.29 58.4191 20.01L58.3291 18.57C58.2491 17.37 58.0891 16.51 57.8491 15.99C57.6291 15.47 57.1591 15.21 56.4391 15.21C55.7991 15.21 55.2791 15.43 54.8791 15.87C54.4791 16.31 54.2791 16.84 54.2791 17.46C54.2791 18.12 54.4591 18.73 54.8191 19.29C55.1791 19.83 55.6691 20.52 56.2891 21.36C57.1091 22.44 57.6591 23.3 57.9391 23.94C58.2391 24.58 58.3891 25.23 58.3891 25.89C58.3891 26.73 58.1991 27.48 57.8191 28.14C57.4591 28.8 56.9691 29.32 56.3491 29.7C55.7291 30.08 55.0491 30.27 54.3091 30.27ZM63.3618 30.27C62.7018 30.27 62.0018 30.17 61.2618 29.97C60.5418 29.77 59.9918 29.52 59.6118 29.22C59.4718 29.1 59.4118 28.92 59.4318 28.68L60.0918 24.75C60.1318 24.49 60.2518 24.36 60.4518 24.36C60.6718 24.36 60.7818 24.5 60.7818 24.78L60.8418 26.22C60.8818 27.36 61.1518 28.2 61.6518 28.74C62.1718 29.26 62.8018 29.52 63.5418 29.52C64.1818 29.52 64.7318 29.32 65.1918 28.92C65.6518 28.5 65.8818 27.89 65.8818 27.09C65.8818 26.63 65.8118 26.21 65.6718 25.83C65.5318 25.43 65.3118 25.01 65.0118 24.57C64.7118 24.11 64.3018 23.56 63.7818 22.92C63.1018 22.04 62.5918 21.29 62.2518 20.67C61.9318 20.03 61.7718 19.37 61.7718 18.69C61.7718 17.43 62.1618 16.42 62.9418 15.66C63.7418 14.9 64.7518 14.52 65.9718 14.52C66.5118 14.52 67.0318 14.6 67.5318 14.76C68.0518 14.92 68.4818 15.16 68.8218 15.48C69.0018 15.62 69.0618 15.8 69.0018 16.02L68.1618 20.04C68.1018 20.3 67.9818 20.43 67.8018 20.43C67.6218 20.43 67.5118 20.29 67.4718 20.01L67.3818 18.57C67.3018 17.37 67.1418 16.51 66.9018 15.99C66.6818 15.47 66.2118 15.21 65.4918 15.21C64.8518 15.21 64.3318 15.43 63.9318 15.87C63.5318 16.31 63.3318 16.84 63.3318 17.46C63.3318 18.12 63.5118 18.73 63.8718 19.29C64.2318 19.83 64.7218 20.52 65.3418 21.36C66.1618 22.44 66.7118 23.3 66.9918 23.94C67.2918 24.58 67.4418 25.23 67.4418 25.89C67.4418 26.73 67.2518 27.48 66.8718 28.14C66.5118 28.8 66.0218 29.32 65.4018 29.7C64.7818 30.08 64.1018 30.27 63.3618 30.27ZM71.6046 30.27C70.8846 30.27 70.3246 29.96 69.9246 29.34C69.5246 28.72 69.3246 27.81 69.3246 26.61C69.3246 25.47 69.4846 24.33 69.8046 23.19C70.1246 22.03 70.5646 20.93 71.1246 19.89C71.6846 18.85 72.3146 17.93 73.0146 17.13C73.7346 16.33 74.4846 15.7 75.2646 15.24C76.0646 14.76 76.8546 14.52 77.6346 14.52C78.0146 14.52 78.3746 14.6 78.7146 14.76C79.0546 14.9 79.3346 15.13 79.5546 15.45C79.6746 15.63 79.7946 15.72 79.9146 15.72C80.0346 15.72 80.1546 15.63 80.2746 15.45C80.4946 15.13 80.6746 14.93 80.8146 14.85C80.9546 14.75 81.0846 14.7 81.2046 14.7C81.4646 14.7 81.5646 14.84 81.5046 15.12L78.8346 26.61C78.5346 27.91 78.7346 28.56 79.4346 28.56C79.8946 28.56 80.3046 28.25 80.6646 27.63C81.0446 27.01 81.4246 26.05 81.8046 24.75C81.8646 24.53 81.9946 24.42 82.1946 24.42C82.3346 24.42 82.4246 24.48 82.4646 24.6C82.5046 24.72 82.5046 24.86 82.4646 25.02C82.0846 26.9 81.5746 28.25 80.9346 29.07C80.2946 29.87 79.5246 30.27 78.6246 30.27C77.8446 30.27 77.2846 29.94 76.9446 29.28C76.6246 28.62 76.5946 27.72 76.8546 26.58L77.2446 24.93C77.2846 24.79 77.2546 24.71 77.1546 24.69C77.0746 24.67 77.0046 24.72 76.9446 24.84C75.8446 26.86 74.8646 28.27 74.0046 29.07C73.1646 29.87 72.3646 30.27 71.6046 30.27ZM72.3546 28.74C72.8346 28.74 73.3646 28.45 73.9446 27.87C74.5246 27.29 75.0946 26.54 75.6546 25.62C76.2346 24.7 76.7646 23.71 77.2446 22.65C77.7246 21.59 78.1046 20.57 78.3846 19.59C78.6846 18.61 78.8346 17.78 78.8346 17.1C78.8346 15.88 78.4046 15.27 77.5446 15.27C77.0246 15.27 76.4746 15.51 75.8946 15.99C75.3146 16.45 74.7546 17.08 74.2146 17.88C73.6946 18.68 73.2146 19.59 72.7746 20.61C72.3546 21.61 72.0146 22.66 71.7546 23.76C71.4946 24.84 71.3646 25.9 71.3646 26.94C71.3646 27.64 71.4446 28.12 71.6046 28.38C71.7846 28.62 72.0346 28.74 72.3546 28.74ZM81.4839 36.45C80.7239 36.45 80.1339 36.25 79.7139 35.85C79.2939 35.47 79.0839 35 79.0839 34.44C79.0839 34.02 79.1939 33.7 79.4139 33.48C79.6339 33.28 79.8739 33.18 80.1339 33.18C80.5139 33.18 80.7839 33.28 80.9439 33.48C81.1039 33.68 81.2239 33.91 81.3039 34.17C81.3839 34.45 81.5139 34.69 81.6939 34.89C81.8539 35.09 82.1239 35.19 82.5039 35.19C83.2439 35.19 83.9739 34.89 84.6939 34.29C85.4139 33.71 86.0039 32.9 86.4639 31.86C86.9239 30.84 87.1239 29.69 87.0639 28.41L86.6139 17.64C86.5939 17.12 86.5039 16.76 86.3439 16.56C86.1839 16.34 85.9839 16.23 85.7439 16.23C85.3039 16.23 84.8839 16.5 84.4839 17.04C84.0839 17.56 83.7539 18.56 83.4939 20.04C83.4339 20.3 83.3039 20.43 83.1039 20.43C82.8239 20.43 82.7139 20.25 82.7739 19.89C83.0139 18.51 83.3439 17.43 83.7639 16.65C84.2039 15.87 84.6639 15.32 85.1439 15C85.6439 14.68 86.1039 14.52 86.5239 14.52C87.1439 14.52 87.6339 14.74 87.9939 15.18C88.3539 15.6 88.5539 16.33 88.5939 17.37L89.0139 28.89C89.0139 29.03 89.0539 29.12 89.1339 29.16C89.2339 29.18 89.3239 29.13 89.4039 29.01C90.1039 28.03 90.7339 27.02 91.2939 25.98C91.8739 24.92 92.3339 23.88 92.6739 22.86C93.0139 21.84 93.1839 20.9 93.1839 20.04C93.1839 19.2 93.0939 18.54 92.9139 18.06C92.7339 17.56 92.5439 17.14 92.3439 16.8C92.1639 16.46 92.0739 16.09 92.0739 15.69C92.0739 14.91 92.4139 14.52 93.0939 14.52C94.0539 14.52 94.5339 15.58 94.5339 17.7C94.5339 18.86 94.3339 20.13 93.9339 21.51C93.5339 22.87 92.9839 24.26 92.2839 25.68C91.6039 27.08 90.8139 28.42 89.9139 29.7C89.0339 30.98 88.1039 32.13 87.1239 33.15C86.1639 34.17 85.1939 34.97 84.2139 35.55C83.2539 36.15 82.3439 36.45 81.4839 36.45ZM94.173 30C93.893 30 93.753 29.9 93.753 29.7C93.753 29.48 93.953 29.34 94.353 29.28L94.953 29.19C95.393 29.13 95.693 29.03 95.853 28.89C96.033 28.73 96.163 28.44 96.243 28.02L100.323 10.38C100.423 9.96 100.423 9.68 100.323 9.54C100.223 9.4 99.973 9.29 99.573 9.21L98.973 9.09C98.713 9.03 98.583 8.92 98.583 8.76C98.583 8.52 98.763 8.4 99.123 8.4H108.783C109.283 8.4 109.483 8.63 109.383 9.09L108.483 14.07C108.423 14.41 108.263 14.58 108.003 14.58C107.723 14.58 107.603 14.45 107.643 14.19L107.703 13.14C107.803 11.76 107.583 10.75 107.043 10.11C106.503 9.47 105.813 9.15 104.973 9.15C104.113 9.15 103.483 9.29 103.083 9.57C102.683 9.85 102.413 10.28 102.273 10.86L100.653 17.94C100.593 18.22 100.703 18.36 100.983 18.36H102.093C102.953 18.36 103.593 17.89 104.013 16.95L104.703 15.48C104.763 15.36 104.823 15.27 104.883 15.21C104.943 15.13 105.033 15.09 105.153 15.09C105.253 15.09 105.343 15.14 105.423 15.24C105.503 15.32 105.523 15.44 105.483 15.6L103.923 22.29C103.823 22.63 103.663 22.8 103.443 22.8C103.203 22.8 103.083 22.67 103.083 22.41V20.97C103.083 20.27 102.993 19.81 102.813 19.59C102.633 19.37 102.313 19.26 101.853 19.26H100.773C100.473 19.26 100.293 19.4 100.233 19.68L98.313 27.87C98.213 28.29 98.213 28.59 98.313 28.77C98.413 28.93 98.663 29.04 99.063 29.1L100.653 29.31C100.893 29.33 101.013 29.44 101.013 29.64C101.013 29.88 100.843 30 100.503 30H94.173ZM109.387 30.3C108.727 30.3 108.257 30.06 107.977 29.58C107.697 29.08 107.687 28.27 107.947 27.15L111.757 10.8C111.857 10.44 111.857 10.19 111.757 10.05C111.677 9.91 111.497 9.83 111.217 9.81L110.317 9.72C110.017 9.7 109.887 9.57 109.927 9.33C109.967 9.15 110.107 9.04 110.347 9C111.067 8.88 111.707 8.74 112.267 8.58C112.827 8.4 113.277 8.17 113.617 7.89C113.777 7.77 113.927 7.71 114.067 7.71C114.307 7.71 114.397 7.86 114.337 8.16L109.897 27.18C109.797 27.62 109.777 27.97 109.837 28.23C109.917 28.47 110.107 28.59 110.407 28.59C110.767 28.59 111.157 28.33 111.577 27.81C112.017 27.27 112.507 26.26 113.047 24.78C113.127 24.52 113.267 24.39 113.467 24.39C113.767 24.39 113.847 24.57 113.707 24.93C113.287 26.29 112.817 27.37 112.297 28.17C111.797 28.95 111.297 29.5 110.797 29.82C110.297 30.14 109.827 30.3 109.387 30.3ZM118.994 30.27C117.754 30.27 116.774 29.76 116.054 28.74C115.334 27.7 114.974 26.3 114.974 24.54C114.974 23.24 115.184 21.99 115.604 20.79C116.024 19.59 116.574 18.52 117.254 17.58C117.954 16.64 118.724 15.9 119.564 15.36C120.424 14.8 121.284 14.52 122.144 14.52C123.384 14.52 124.364 15.03 125.084 16.05C125.804 17.07 126.164 18.47 126.164 20.25C126.164 21.55 125.954 22.8 125.534 24C125.114 25.2 124.554 26.27 123.854 27.21C123.174 28.15 122.404 28.9 121.544 29.46C120.704 30 119.854 30.27 118.994 30.27ZM118.934 29.55C119.574 29.55 120.194 29.24 120.794 28.62C121.414 28 121.974 27.18 122.474 26.16C122.974 25.14 123.374 24.01 123.674 22.77C123.974 21.51 124.124 20.25 124.124 18.99C124.124 16.49 123.474 15.24 122.174 15.24C121.554 15.24 120.934 15.55 120.314 16.17C119.694 16.77 119.134 17.58 118.634 18.6C118.154 19.62 117.764 20.76 117.464 22.02C117.164 23.26 117.014 24.51 117.014 25.77C117.014 28.29 117.654 29.55 118.934 29.55ZM130.906 30.27C130.086 30.27 129.456 29.95 129.016 29.31C128.576 28.67 128.496 27.8 128.776 26.7L131.176 17.64C131.436 16.7 131.276 16.23 130.696 16.23C130.276 16.23 129.856 16.53 129.436 17.13C129.036 17.73 128.596 18.71 128.116 20.07C128.036 20.31 127.896 20.43 127.696 20.43C127.596 20.43 127.516 20.39 127.456 20.31C127.396 20.21 127.386 20.09 127.426 19.95C128.586 16.33 130.036 14.52 131.776 14.52C132.456 14.52 132.916 14.8 133.156 15.36C133.396 15.92 133.386 16.69 133.126 17.67L130.606 27.24C130.426 27.92 130.416 28.42 130.576 28.74C130.736 29.06 130.976 29.22 131.296 29.22C132.276 29.22 133.366 28.02 134.566 25.62C135.786 23.2 136.856 19.67 137.776 15.03C137.836 14.81 137.976 14.7 138.196 14.7H139.366C139.646 14.7 139.756 14.83 139.696 15.09L137.296 27.24C137.156 27.9 137.166 28.4 137.326 28.74C137.506 29.06 137.786 29.22 138.166 29.22C138.746 29.22 139.336 28.94 139.936 28.38C140.536 27.82 141.076 27.09 141.556 26.19C142.056 25.29 142.456 24.3 142.756 23.22C143.056 22.14 143.206 21.08 143.206 20.04C143.206 19.2 143.136 18.54 142.996 18.06C142.876 17.56 142.746 17.14 142.606 16.8C142.466 16.46 142.396 16.09 142.396 15.69C142.396 14.91 142.736 14.52 143.416 14.52C143.896 14.52 144.206 14.79 144.346 15.33C144.486 15.85 144.556 16.64 144.556 17.7C144.556 19.22 144.366 20.73 143.986 22.23C143.626 23.71 143.126 25.06 142.486 26.28C141.866 27.48 141.146 28.45 140.326 29.19C139.526 29.91 138.676 30.27 137.776 30.27C136.916 30.27 136.256 29.94 135.796 29.28C135.336 28.6 135.236 27.62 135.496 26.34C135.536 26.2 135.506 26.12 135.406 26.1C135.326 26.08 135.256 26.13 135.196 26.25C134.636 27.37 134.006 28.32 133.306 29.1C132.606 29.88 131.806 30.27 130.906 30.27Z" fill="black"/>
<defs>
<radialGradient id="paint0_radial_1_2833" cx="0" cy="0" r="1" gradientUnits="userSpaceOnUse" gradientTransform="translate(6 9) rotate(52.9269) scale(28.2002)">
<stop stop-color="#FFFF00"/>
<stop offset="0.485577" stop-color="#F61900"/>
<stop offset="1" stop-color="#6A00EB"/>
</radialGradient>
</defs>
</svg>
