<svg width="82" height="56" viewBox="0 0 82 56" fill="none" xmlns="http://www.w3.org/2000/svg">
<path d="M76.5333 56H5.46667C4.01682 56 2.62635 55.41 1.60115 54.3598C0.575951 53.3096 0 51.8852 0 50.4V5.6C0 4.11479 0.575951 2.69041 1.60115 1.6402C2.62635 0.589998 4.01682 0 5.46667 0H76.5333C77.9832 0 79.3737 0.589998 80.3988 1.6402C81.424 2.69041 82 4.11479 82 5.6V50.4C82 51.8852 81.424 53.3096 80.3988 54.3598C79.3737 55.41 77.9832 56 76.5333 56ZM31.9618 24.0917C31.8994 24.0925 31.838 24.1076 31.782 24.1359C31.7261 24.1641 31.677 24.2048 31.6383 24.255C31.5486 24.3486 31.4972 24.4738 31.4948 24.605C31.4948 24.654 31.7181 25.3517 32.1964 26.782L33.7111 31.318C34.2502 32.9358 34.5319 33.796 34.5562 33.8987C33.4957 35.2436 32.537 36.6696 31.6884 38.164L31.6019 38.3273L31.5973 38.3857C31.5973 38.619 31.7818 38.8103 32.0119 38.8103L32.0734 38.8057H32.0711H34.8454C34.9748 38.8049 35.1018 38.7704 35.2145 38.7055C35.3273 38.6406 35.4221 38.5474 35.4901 38.4347L35.4923 38.4323L44.6763 24.8547C44.7246 24.7895 44.751 24.7101 44.7515 24.6283L44.7492 24.5933V24.5957C44.7461 24.4647 44.6949 24.3397 44.6057 24.2457C44.5674 24.1957 44.5187 24.1551 44.4632 24.1268C44.4076 24.0986 44.3466 24.0834 44.2846 24.0823H41.5079C41.3783 24.0832 41.251 24.1177 41.1379 24.1825C41.0248 24.2474 40.9295 24.3406 40.8611 24.4533L40.8588 24.4557L37.0321 30.2097L35.4491 24.675C35.4084 24.5063 35.314 24.3564 35.1807 24.2491C35.0474 24.1417 34.8829 24.083 34.7133 24.0823L34.6541 24.0847H34.6564L31.9618 24.0917ZM63.8006 23.8327H63.7413C62.0148 23.8327 60.4636 24.6003 59.3931 25.8183L59.3885 25.823C58.2176 27.0635 57.5641 28.7221 57.5663 30.4477V30.5107V30.5083C57.5617 30.576 57.5617 30.6577 57.5617 30.737C57.5617 31.99 58.0378 33.131 58.8122 33.978L58.8099 33.9757C59.2505 34.4152 59.7748 34.7569 60.3502 34.9793C60.9256 35.2017 61.5395 35.3001 62.1537 35.2683H62.1423C62.9099 35.259 63.6388 35.098 64.3039 34.8087L64.2675 34.8227C64.9394 34.5637 65.5089 34.16 65.9576 33.6467L65.9622 33.642C65.9394 33.775 65.9143 33.887 65.8847 33.9943L65.8893 33.971C65.8486 34.1139 65.8241 34.2611 65.8164 34.4097V34.4143C65.8164 34.8063 65.9736 35.0047 66.2856 35.0047H68.7707C68.8677 35.0136 68.9655 35.0025 69.0583 34.972C69.1511 34.9416 69.2369 34.8924 69.3108 34.8273C69.3847 34.7623 69.4451 34.6827 69.4885 34.5934C69.5319 34.504 69.5573 34.4066 69.5633 34.307V34.3047L71.0393 24.675C71.0533 24.6024 71.0509 24.5274 71.0323 24.4558C71.0138 24.3843 70.9796 24.318 70.9323 24.262C70.8913 24.2042 70.8375 24.1571 70.7754 24.1247C70.7132 24.0922 70.6444 24.0753 70.5747 24.0753H67.8345C67.4997 24.0753 67.2878 24.4837 67.2195 25.2933C66.8185 24.7663 66.2913 24.3546 65.6889 24.0983C65.0866 23.8419 64.4298 23.7496 63.7823 23.8303L63.8006 23.828V23.8327ZM22.8848 23.8327H22.8211C21.0968 23.8327 19.5456 24.6003 18.4796 25.8183L18.4751 25.823C17.3042 27.0635 16.6506 28.7221 16.6528 30.4477V30.5107V30.5083C16.6227 31.1426 16.7176 31.7765 16.9321 32.3723C17.1466 32.968 17.4761 33.5134 17.9011 33.9757L17.8988 33.9733C18.7051 34.776 19.8076 35.2707 21.0239 35.2707L21.2426 35.266H21.2312C21.9874 35.2543 22.7049 35.0933 23.3586 34.8063L23.3222 34.8203C24.0032 34.5543 24.5818 34.153 25.0487 33.642L25.051 33.6397C24.9667 33.8683 24.9143 34.1343 24.9075 34.4097V34.4143C24.9075 34.8063 25.0669 35.0047 25.3767 35.0047H27.8595C27.9565 35.0136 28.0543 35.0025 28.1471 34.972C28.2399 34.9416 28.3258 34.8924 28.3997 34.8273C28.4736 34.7623 28.534 34.6827 28.5774 34.5934C28.6207 34.504 28.6462 34.4066 28.6522 34.307V34.3047L30.1304 24.675C30.1429 24.6029 30.1395 24.5289 30.1206 24.4582C30.1017 24.3876 30.0677 24.3222 30.0211 24.2667C29.9801 24.2088 29.9263 24.1618 29.8642 24.1293C29.802 24.0969 29.7333 24.08 29.6635 24.08H26.9233C26.5885 24.08 26.3767 24.4883 26.3106 25.298C25.9055 24.7752 25.3773 24.3665 24.7757 24.1102C24.1741 23.8538 23.5187 23.7584 22.8712 23.8327L22.8894 23.8303L22.8848 23.8327ZM74.2829 18.6667L74.2464 18.6643C74.1377 18.6639 74.0328 18.7055 73.9526 18.7807C73.8724 18.8559 73.8228 18.9593 73.8137 19.0703L71.4721 34.4213C71.4529 34.4952 71.4526 34.5729 71.4714 34.6469C71.4902 34.7209 71.5273 34.7887 71.5792 34.8437C71.6222 34.8959 71.6759 34.9378 71.7366 34.9665C71.7972 34.9951 71.8632 35.0097 71.9299 35.0093H74.3216L74.3945 35.014C74.5757 35.014 74.7495 34.9402 74.8777 34.809C75.0058 34.6777 75.0778 34.4997 75.0778 34.314V34.3093L77.4148 19.2243L77.4171 19.173C77.4169 19.04 77.3746 18.9106 77.2964 18.8043V18.8067C77.2555 18.762 77.2061 18.7263 77.1513 18.7018C77.0964 18.6773 77.0373 18.6646 76.9775 18.6643L76.9433 18.6667H74.2829ZM47.7012 18.6667C47.6034 18.6535 47.5041 18.6616 47.4096 18.6905C47.3151 18.7194 47.2276 18.7683 47.1528 18.8341C47.078 18.9 47.0176 18.9812 46.9755 19.0726C46.9334 19.1639 46.9106 19.2633 46.9086 19.3643L44.5693 34.419C44.5572 34.4906 44.5606 34.564 44.579 34.6341C44.5975 34.7042 44.6307 34.7694 44.6763 34.825C44.7166 34.8831 44.7699 34.9303 44.8317 34.9628C44.8936 34.9953 44.9622 35.0121 45.0317 35.0117H48.0042C48.1376 35.0116 48.2668 34.964 48.3698 34.8772C48.4728 34.7904 48.5432 34.6697 48.5691 34.5357V34.531L49.2182 30.2517C49.2376 30.0643 49.3285 29.8924 49.4711 29.7733C49.6265 29.6447 49.8153 29.5616 50.0132 29.533H50.02C50.2045 29.498 50.4163 29.4793 50.6327 29.477C50.8241 29.477 51.0541 29.4887 51.3183 29.5143C51.6071 29.5484 51.8977 29.5639 52.1884 29.561C53.8573 29.5638 55.4653 28.9194 56.6893 27.7573L56.6848 27.762C57.2951 27.099 57.7664 26.3149 58.0696 25.4581C58.3729 24.6013 58.5015 23.69 58.4478 22.7803V22.799C58.4968 22.1974 58.3961 21.5929 58.1551 21.042C57.9141 20.4912 57.5407 20.0119 57.0697 19.649L57.0606 19.642C55.9737 18.9379 54.7004 18.5963 53.4162 18.6643H53.4298L47.7012 18.6667ZM6.74222 18.6667C6.64694 18.6562 6.55057 18.6664 6.45938 18.6965C6.36818 18.7267 6.2842 18.7762 6.21288 18.8417C6.14157 18.9073 6.08451 18.9875 6.04543 19.0772C6.00634 19.1668 5.98609 19.2638 5.986 19.362V19.3667L3.64444 34.4213C3.63223 34.4929 3.63549 34.5664 3.65399 34.6365C3.67248 34.7067 3.70577 34.7718 3.7515 34.8273C3.79174 34.8854 3.84504 34.9327 3.90689 34.9652C3.96874 34.9976 4.03732 35.0144 4.10683 35.014H6.84928C6.94705 35.0271 7.04643 35.019 7.14093 34.9902C7.23544 34.9613 7.32294 34.9124 7.39774 34.8465C7.47253 34.7807 7.53294 34.6995 7.57502 34.6081C7.6171 34.5167 7.6399 34.4173 7.64194 34.3163L8.29111 30.2587C8.31084 30.0719 8.40069 29.9004 8.54167 29.7803C8.69708 29.6517 8.88593 29.5686 9.08378 29.54H9.09061C9.29217 29.5036 9.49639 29.4848 9.70105 29.484H9.70333C9.89467 29.484 10.1224 29.4957 10.3867 29.5213C10.6747 29.5553 10.9646 29.5708 11.2545 29.568C12.9924 29.568 14.5732 28.8843 15.7577 27.7643L15.7531 27.769C16.3632 27.1058 16.8344 26.3217 17.1376 25.465C17.4408 24.6082 17.5696 23.697 17.5161 22.7873V22.806C17.5651 22.2044 17.4644 21.5999 17.2234 21.049C16.9824 20.4982 16.609 20.0189 16.1381 19.656L16.1289 19.649C15.0468 18.9475 13.7796 18.6053 12.5004 18.669H12.5141L6.74222 18.6667ZM63.6502 32.2817L63.5409 32.284C62.9589 32.2846 62.3956 32.0737 61.951 31.689L61.9556 31.6913C61.75 31.4973 61.586 31.2618 61.4738 30.9995C61.3617 30.7372 61.3039 30.454 61.3041 30.1677L61.3064 30.0627V29.9997C61.3064 29.127 61.6503 28.336 62.2084 27.762C62.7573 27.1857 63.5227 26.8287 64.37 26.8287H64.4452H64.4406L64.5181 26.8263C65.1308 26.8263 65.6888 27.0573 66.1171 27.4377L66.1148 27.4353C66.3263 27.6359 66.495 27.8792 66.6102 28.1499C66.7255 28.4205 66.7848 28.7127 66.7844 29.008L66.7822 29.12V29.1153V29.1713C66.7822 30.0323 66.4337 30.8117 65.8711 31.3647C65.5869 31.6547 65.2497 31.8845 64.8788 32.0411C64.5079 32.1976 64.1106 32.2778 63.7094 32.277H63.6525L63.6502 32.2817ZM22.6981 32.2817L22.5842 32.284C21.9874 32.284 21.4384 32.06 21.0193 31.689L21.0216 31.6913C20.8213 31.4951 20.6619 31.2594 20.5531 30.9983C20.4443 30.7372 20.3882 30.4562 20.3884 30.1723L20.3907 30.0627V29.9997C20.3907 29.127 20.7346 28.336 21.2927 27.762C21.8416 27.1857 22.6047 26.8287 23.452 26.8287H23.5317H23.5272L23.6046 26.8263C24.2173 26.8263 24.7754 27.0573 25.2036 27.4377L25.2013 27.4353C25.4123 27.6358 25.5804 27.8788 25.6953 28.149C25.8101 28.4193 25.8692 28.7109 25.8687 29.0057L25.8664 29.12V29.1153V29.197C25.8664 30.058 25.5179 30.8327 24.9553 31.3857C24.3715 31.9612 23.5926 32.2824 22.7823 32.2817H22.6981ZM49.8196 26.3083L50.4323 22.3627C50.4371 22.3046 50.4532 22.248 50.4794 22.1963C50.5056 22.1446 50.5416 22.0986 50.5851 22.0611C50.6287 22.0236 50.6791 21.9953 50.7334 21.9778C50.7877 21.9603 50.8448 21.9539 50.9015 21.959H51.5484L51.6873 21.9567C52.0814 21.9567 52.4709 21.9847 52.8513 22.0383L52.808 22.0337C53.1611 22.099 53.4686 22.2623 53.71 22.4957C53.8476 22.6289 53.9572 22.7895 54.032 22.9676C54.1068 23.1458 54.1453 23.3377 54.1451 23.5317L54.1428 23.6203V23.6157C54.1906 24.0055 54.1437 24.4014 54.0062 24.7681C53.8687 25.1349 53.6449 25.4612 53.3547 25.718L53.3524 25.7203C52.6266 26.1447 51.7944 26.3395 50.9607 26.2803H50.9744L49.8241 26.3177L49.8196 26.3083ZM8.86739 26.3083L9.48011 22.3627C9.48469 22.3045 9.5005 22.2478 9.52664 22.1959C9.55278 22.144 9.58871 22.0979 9.63236 22.0604C9.67601 22.0228 9.72651 21.9945 9.78092 21.9771C9.83533 21.9597 9.89258 21.9536 9.94933 21.959H10.6304C11.3597 21.9043 12.0897 22.0543 12.7419 22.393L12.7191 22.3813C13.1496 22.6637 13.2954 23.2633 13.1519 24.1687C13.1409 24.5067 13.0507 24.837 12.889 25.1318C12.7272 25.4266 12.4987 25.6773 12.2226 25.8627L12.2157 25.8673C11.1361 26.2746 9.98014 26.4246 8.8355 26.306L8.86739 26.3083Z" fill="white"/>
</svg>
