<svg width="71" height="70" viewBox="0 0 71 70" fill="none" xmlns="http://www.w3.org/2000/svg">
<g clip-path="url(#clip0_219_2065)">
<path d="M0.500006 70.0001L35.5 35.0001M70.5 0.00012207L35.5 35.0001M35.5 35.0001L70.5 70.0001M35.5 35.0001L0.500006 0.00012207M35.5 35.0001V0.00012207M35.5 35.0001H0.500006M35.5 35.0001V70.0001M35.5 35.0001L15.2927 70.0001M35.5 35.0001L26.1218 70.0001M35.5 35.0001L44.8782 70.0001M35.5 35.0001L55.7073 70.0001M35.5 35.0001L55.7073 0.000124995M35.5 35.0001L44.8782 0.000124995M35.5 35.0001L26.1218 0.00012207M35.5 35.0001L15.2927 0.000124995M35.5 35.0001L0.500005 14.7929M35.5 35.0001L0.500005 25.6219M35.5 35.0001L0.5 44.3784M35.5 35.0001L0.5 55.2074" stroke="#72C300" stroke-width="3.5"/>
</g>
<defs>
<clipPath id="clip0_219_2065">
<rect x="0.5" y="0.00012207" width="70" height="70" rx="35" fill="white"/>
</clipPath>
</defs>
</svg>
