<svg width="80" height="24" viewBox="0 0 80 24" fill="none" xmlns="http://www.w3.org/2000/svg">
<path d="M14.5913 0.879998C14.5913 3.44 13.8713 6.82667 12.4313 11.04C12.3246 11.3067 12.2979 11.4933 12.3513 11.6C12.4579 11.6533 12.6179 11.6533 12.8313 11.6C14.3779 11.1733 15.8713 10.48 17.3113 9.52C18.8046 8.56 19.8179 7.78667 20.3513 7.2C20.8313 6.82667 21.0979 6.64 21.1513 6.64C21.4713 6.64 21.9246 7.30667 22.5113 8.64C23.0979 9.92 23.3913 10.9333 23.3913 11.68C23.3913 12 23.0713 12.24 22.4313 12.4C21.8979 12.56 18.8313 12.72 13.2313 12.88C12.8046 12.88 12.6713 13.0667 12.8313 13.44C13.3113 14.2933 14.4046 15.3867 16.1113 16.72C17.8179 18.0533 18.9913 18.8533 19.6313 19.12C20.1646 19.3333 20.4313 19.5467 20.4313 19.76C20.4313 20.4 19.8979 21.2267 18.8313 22.24C17.7646 23.2533 16.9379 23.76 16.3513 23.76C16.0313 23.76 15.6579 23.3867 15.2313 22.64C13.9513 20.2933 12.8046 17.5467 11.7913 14.4C11.5779 13.92 11.3646 13.84 11.1513 14.16C10.0313 15.92 9.01793 18.1333 8.11126 20.8C7.89793 21.3333 7.73793 21.9467 7.63127 22.64C7.63127 22.9067 7.31126 23.04 6.67126 23.04C5.65793 23.04 4.75126 22.9867 3.95126 22.88C3.15127 22.72 2.5646 22.56 2.19126 22.4C1.81793 22.24 1.63126 22.0533 1.63126 21.84C1.63126 21.5733 1.81793 21.2 2.19126 20.72C2.83126 19.8667 5.49793 17.44 10.1913 13.44C10.5113 13.12 10.4846 12.88 10.1113 12.72C8.8846 12.3467 6.6446 12.16 3.39126 12.16C2.9646 12.16 2.5646 12.2133 2.19126 12.32C1.81793 12.3733 1.6046 12.4 1.55126 12.4C0.964598 12.4 0.671265 10.6133 0.671265 7.04C0.671265 6.61333 0.937931 6.4 1.47126 6.4C2.4846 6.4 3.95126 7.04 5.87126 8.32C7.8446 9.54666 9.39126 10.6133 10.5113 11.52C10.9913 11.8933 11.2313 11.7333 11.2313 11.04C11.3379 9.65333 10.6179 7.04 9.07127 3.2C8.91126 2.82667 8.83127 2.53333 8.83127 2.32C8.83127 1.94667 9.49793 1.46667 10.8313 0.879998C12.1646 0.293333 13.2046 0 13.9513 0C14.3779 0 14.5913 0.293333 14.5913 0.879998Z" fill="white"/>
<path d="M42.56 0.879998C42.56 3.44 41.84 6.82667 40.4 11.04C40.2933 11.3067 40.2667 11.4933 40.32 11.6C40.4267 11.6533 40.5867 11.6533 40.8 11.6C42.3467 11.1733 43.84 10.48 45.28 9.52C46.7733 8.56 47.7867 7.78667 48.32 7.2C48.8 6.82667 49.0667 6.64 49.12 6.64C49.44 6.64 49.8933 7.30667 50.48 8.64C51.0667 9.92 51.36 10.9333 51.36 11.68C51.36 12 51.04 12.24 50.4 12.4C49.8667 12.56 46.8 12.72 41.2 12.88C40.7733 12.88 40.64 13.0667 40.8 13.44C41.28 14.2933 42.3734 15.3867 44.08 16.72C45.7867 18.0533 46.96 18.8533 47.6 19.12C48.1333 19.3333 48.4 19.5467 48.4 19.76C48.4 20.4 47.8667 21.2267 46.8 22.24C45.7333 23.2533 44.9067 23.76 44.32 23.76C44 23.76 43.6267 23.3867 43.2 22.64C41.92 20.2933 40.7733 17.5467 39.76 14.4C39.5467 13.92 39.3333 13.84 39.12 14.16C38 15.92 36.9867 18.1333 36.08 20.8C35.8667 21.3333 35.7067 21.9467 35.6 22.64C35.6 22.9067 35.28 23.04 34.64 23.04C33.6267 23.04 32.72 22.9867 31.92 22.88C31.12 22.72 30.5333 22.56 30.16 22.4C29.7867 22.24 29.6 22.0533 29.6 21.84C29.6 21.5733 29.7867 21.2 30.16 20.72C30.8 19.8667 33.4667 17.44 38.16 13.44C38.48 13.12 38.4534 12.88 38.08 12.72C36.8534 12.3467 34.6133 12.16 31.36 12.16C30.9333 12.16 30.5333 12.2133 30.16 12.32C29.7867 12.3733 29.5733 12.4 29.52 12.4C28.9333 12.4 28.64 10.6133 28.64 7.04C28.64 6.61333 28.9067 6.4 29.44 6.4C30.4533 6.4 31.92 7.04 33.84 8.32C35.8133 9.54666 37.36 10.6133 38.48 11.52C38.96 11.8933 39.2 11.7333 39.2 11.04C39.3067 9.65333 38.5867 7.04 37.04 3.2C36.88 2.82667 36.8 2.53333 36.8 2.32C36.8 1.94667 37.4667 1.46667 38.8 0.879998C40.1333 0.293333 41.1733 0 41.92 0C42.3467 0 42.56 0.293333 42.56 0.879998Z" fill="white"/>
<path d="M70.5288 0.879998C70.5288 3.44 69.8088 6.82667 68.3688 11.04C68.2621 11.3067 68.2354 11.4933 68.2888 11.6C68.3954 11.6533 68.5554 11.6533 68.7688 11.6C70.3154 11.1733 71.8088 10.48 73.2488 9.52C74.7421 8.56 75.7554 7.78667 76.2888 7.2C76.7688 6.82667 77.0354 6.64 77.0888 6.64C77.4088 6.64 77.8621 7.30667 78.4488 8.64C79.0354 9.92 79.3288 10.9333 79.3288 11.68C79.3288 12 79.0088 12.24 78.3688 12.4C77.8354 12.56 74.7688 12.72 69.1688 12.88C68.7421 12.88 68.6088 13.0667 68.7688 13.44C69.2488 14.2933 70.3421 15.3867 72.0488 16.72C73.7554 18.0533 74.9288 18.8533 75.5688 19.12C76.1021 19.3333 76.3688 19.5467 76.3688 19.76C76.3688 20.4 75.8354 21.2267 74.7688 22.24C73.7021 23.2533 72.8754 23.76 72.2888 23.76C71.9688 23.76 71.5954 23.3867 71.1688 22.64C69.8888 20.2933 68.7421 17.5467 67.7288 14.4C67.5154 13.92 67.3021 13.84 67.0888 14.16C65.9688 15.92 64.9554 18.1333 64.0488 20.8C63.8354 21.3333 63.6754 21.9467 63.5688 22.64C63.5688 22.9067 63.2488 23.04 62.6088 23.04C61.5954 23.04 60.6888 22.9867 59.8888 22.88C59.0888 22.72 58.5021 22.56 58.1288 22.4C57.7554 22.24 57.5688 22.0533 57.5688 21.84C57.5688 21.5733 57.7554 21.2 58.1288 20.72C58.7688 19.8667 61.4354 17.44 66.1288 13.44C66.4488 13.12 66.4221 12.88 66.0488 12.72C64.8221 12.3467 62.5821 12.16 59.3288 12.16C58.9021 12.16 58.5021 12.2133 58.1288 12.32C57.7554 12.3733 57.5421 12.4 57.4888 12.4C56.9021 12.4 56.6088 10.6133 56.6088 7.04C56.6088 6.61333 56.8754 6.4 57.4088 6.4C58.4221 6.4 59.8888 7.04 61.8088 8.32C63.7821 9.54666 65.3288 10.6133 66.4488 11.52C66.9288 11.8933 67.1688 11.7333 67.1688 11.04C67.2754 9.65333 66.5554 7.04 65.0088 3.2C64.8488 2.82667 64.7688 2.53333 64.7688 2.32C64.7688 1.94667 65.4354 1.46667 66.7688 0.879998C68.1021 0.293333 69.1421 0 69.8888 0C70.3154 0 70.5288 0.293333 70.5288 0.879998Z" fill="white"/>
</svg>
