<svg width="70" height="71" viewBox="0 0 70 71" fill="none" xmlns="http://www.w3.org/2000/svg">
<path d="M43.2442 23.8899C41.3302 24.259 40.1134 24.7785 38.7462 25.7902C36.7638 27.2941 35.7247 29.9738 36.2853 32.1887C36.8048 34.2121 38.2403 35.5656 41.672 37.2883C43.9689 38.4367 44.5841 39.7219 43.381 40.843C42.1231 42.0051 38.5685 41.9367 35.8067 40.7063C35.3282 40.4875 34.9454 40.3918 34.8771 40.4602C34.8087 40.5285 34.5626 41.4992 34.3302 42.6203C34.0978 43.7414 33.8653 44.7941 33.8243 44.9719C33.756 45.2316 33.838 45.3 34.6173 45.5461C36.4767 46.1613 37.6798 46.3254 40.2638 46.3117C43.1212 46.2981 44.1329 46.093 46.0606 45.1496C48.0567 44.1652 49.4923 42.3879 49.9024 40.4191C50.1622 39.1887 50.0255 37.5891 49.5743 36.6184C48.9181 35.1691 47.756 34.1848 44.8439 32.5988C42.4103 31.2727 41.795 30.507 42.4103 29.5774C43.2989 28.2238 45.9103 28.0051 48.9317 29.0168C49.5743 29.2356 50.1212 29.3996 50.1212 29.3996C50.2442 29.2492 51.1056 24.7102 51.0235 24.6281C50.9689 24.5734 50.3126 24.3684 49.5606 24.177C47.879 23.7258 44.8439 23.5891 43.2442 23.8899Z" fill="#1434CB"/>
<path d="M0 24.4912C0 24.8604 0.0546875 24.9014 0.792969 25.0518C2.00977 25.3252 4.08789 26.0225 4.99023 26.4463C6.07031 26.9795 6.49414 27.4033 6.75391 28.251C6.97266 29.0029 11.3477 45.915 11.3477 46.0381C11.3477 46.0791 12.7285 46.1201 14.4102 46.1201H17.459L22.0254 35.2373C24.541 29.249 26.6191 24.2998 26.6328 24.2314C26.6602 24.1631 25.3066 24.1084 23.625 24.1084H20.5488L17.6914 31.3545C15.7637 36.2627 14.8066 38.5186 14.7383 38.3545C14.6836 38.2314 14.1367 35.4424 13.5352 32.1748C12.9199 28.9072 12.373 26.0361 12.291 25.8037C12.1406 25.3115 11.293 24.4502 10.7598 24.2588C10.5137 24.1631 8.50391 24.1084 5.18164 24.1084H0V24.4912Z" fill="#1434CB"/>
<path d="M28.9159 24.2725C28.8749 24.3682 27.8359 29.2217 26.5917 35.0459C25.3476 40.8701 24.2948 45.751 24.2538 45.874C24.1855 46.1064 24.3905 46.1201 27.1249 46.1201C28.7519 46.1201 30.078 46.0791 30.078 46.0244C30.078 45.9287 34.5214 25.0791 34.6855 24.4092L34.7538 24.1084H31.8691C29.6816 24.1084 28.9569 24.1494 28.9159 24.2725Z" fill="#1434CB"/>
<path d="M59.3359 24.4092C59.0078 24.5869 58.625 24.874 58.4883 25.0654C58.2832 25.3525 49.6289 45.8467 49.6289 46.0518C49.6289 46.0928 50.9961 46.1201 52.6777 46.1201H55.7129L56.041 45.1904C56.2188 44.6846 56.4785 43.9463 56.6289 43.5498L56.9023 42.8389L60.4707 42.8662L64.0391 42.9072L64.3809 44.5068L64.709 46.1201H67.3613C69.8359 46.1201 70 46.1064 70 45.874C70 45.6279 65.6934 24.874 65.543 24.3408C65.4746 24.1357 65.2148 24.1084 62.6992 24.1084C60.1016 24.1084 59.9102 24.1221 59.3359 24.4092ZM62.2754 34.4033C62.6855 36.4131 63.0273 38.0947 63.0273 38.1221C63.0273 38.1631 62.043 38.1904 60.8398 38.1904C59.6367 38.1904 58.6523 38.1357 58.6523 38.0674C58.6523 37.9307 61.2227 30.8213 61.3594 30.6162C61.4551 30.4385 61.3867 30.1514 62.2754 34.4033Z" fill="#1434CB"/>
</svg>
